<mxfile host="app.diagrams.net" modified="2020-11-05T02:59:56.146Z" agent="5.0 (Windows NT 10.0; Win64; x64) AppleWebKit/537.36 (KHTML, like Gecko) Chrome/88.0.4302.0 Safari/537.36" etag="rTKInK0u49AhEbAt8vjk" version="13.9.1" type="github" pages="3">
  <diagram id="NxATLUDGpjm4sUset7yz" name="Overview">
    <mxGraphModel dx="1422" dy="794" grid="1" gridSize="10" guides="1" tooltips="1" connect="1" arrows="1" fold="1" page="1" pageScale="1" pageWidth="827" pageHeight="1169" math="0" shadow="0">
      <root>
        <mxCell id="0" />
        <mxCell id="1" parent="0" />
        <mxCell id="TTPXnlIUXRx3NaiIB9LP-1" value="" style="whiteSpace=wrap;html=1;aspect=fixed;" vertex="1" parent="1">
          <mxGeometry y="110" width="690" height="690" as="geometry" />
        </mxCell>
        <mxCell id="TTPXnlIUXRx3NaiIB9LP-2" value="" style="whiteSpace=wrap;html=1;aspect=fixed;shadow=1;rounded=1;" vertex="1" parent="1">
          <mxGeometry x="290" y="430" width="100" height="100" as="geometry" />
        </mxCell>
        <mxCell id="TTPXnlIUXRx3NaiIB9LP-3" value="App Module" style="text;html=1;strokeColor=none;fillColor=none;align=center;verticalAlign=middle;whiteSpace=wrap;rounded=1;shadow=1;" vertex="1" parent="1">
          <mxGeometry x="310" y="465" width="60" height="30" as="geometry" />
        </mxCell>
        <mxCell id="TTPXnlIUXRx3NaiIB9LP-4" value="" style="whiteSpace=wrap;html=1;aspect=fixed;shadow=1;rounded=1;" vertex="1" parent="1">
          <mxGeometry x="210" y="260" width="100" height="100" as="geometry" />
        </mxCell>
        <mxCell id="TTPXnlIUXRx3NaiIB9LP-5" value="Auth Module" style="text;html=1;strokeColor=none;fillColor=none;align=center;verticalAlign=middle;whiteSpace=wrap;rounded=1;shadow=1;" vertex="1" parent="1">
          <mxGeometry x="230" y="295" width="60" height="30" as="geometry" />
        </mxCell>
        <mxCell id="TTPXnlIUXRx3NaiIB9LP-6" value="" style="whiteSpace=wrap;html=1;aspect=fixed;shadow=1;rounded=1;" vertex="1" parent="1">
          <mxGeometry x="370" y="260" width="100" height="100" as="geometry" />
        </mxCell>
        <mxCell id="TTPXnlIUXRx3NaiIB9LP-7" value="Article Module" style="text;html=1;strokeColor=none;fillColor=none;align=center;verticalAlign=middle;whiteSpace=wrap;rounded=1;shadow=1;" vertex="1" parent="1">
          <mxGeometry x="390" y="295" width="60" height="30" as="geometry" />
        </mxCell>
        <mxCell id="TTPXnlIUXRx3NaiIB9LP-8" value="" style="whiteSpace=wrap;html=1;aspect=fixed;shadow=1;rounded=1;" vertex="1" parent="1">
          <mxGeometry x="290" y="585" width="100" height="100" as="geometry" />
        </mxCell>
        <mxCell id="TTPXnlIUXRx3NaiIB9LP-9" value="Share Module" style="text;html=1;strokeColor=none;fillColor=none;align=center;verticalAlign=middle;whiteSpace=wrap;rounded=1;shadow=1;" vertex="1" parent="1">
          <mxGeometry x="310" y="620" width="60" height="30" as="geometry" />
        </mxCell>
        <mxCell id="TTPXnlIUXRx3NaiIB9LP-10" value="" style="whiteSpace=wrap;html=1;aspect=fixed;shadow=1;rounded=1;" vertex="1" parent="1">
          <mxGeometry x="440" y="470" width="100" height="100" as="geometry" />
        </mxCell>
        <mxCell id="TTPXnlIUXRx3NaiIB9LP-11" value="Profile Module" style="text;html=1;strokeColor=none;fillColor=none;align=center;verticalAlign=middle;whiteSpace=wrap;rounded=1;shadow=1;" vertex="1" parent="1">
          <mxGeometry x="460" y="505" width="60" height="30" as="geometry" />
        </mxCell>
        <mxCell id="TTPXnlIUXRx3NaiIB9LP-12" value="" style="whiteSpace=wrap;html=1;aspect=fixed;shadow=1;rounded=1;" vertex="1" parent="1">
          <mxGeometry x="130" y="470" width="100" height="100" as="geometry" />
        </mxCell>
        <mxCell id="TTPXnlIUXRx3NaiIB9LP-13" value="Settings Module" style="text;html=1;strokeColor=none;fillColor=none;align=center;verticalAlign=middle;whiteSpace=wrap;rounded=1;shadow=1;" vertex="1" parent="1">
          <mxGeometry x="150" y="505" width="60" height="30" as="geometry" />
        </mxCell>
      </root>
    </mxGraphModel>
  </diagram>
  <diagram id="PXfUg843ZWEAmI7lStBr" name="App">
    <mxGraphModel dx="2249" dy="794" grid="1" gridSize="10" guides="1" tooltips="1" connect="1" arrows="1" fold="1" page="1" pageScale="1" pageWidth="827" pageHeight="1169" math="0" shadow="0">
      <root>
        <mxCell id="uQfzY_hKU3L6vFdoFHdU-0" />
        <mxCell id="uQfzY_hKU3L6vFdoFHdU-1" parent="uQfzY_hKU3L6vFdoFHdU-0" />
        <mxCell id="SgsF38AEUeu6z_KLhp7--0" value="" style="whiteSpace=wrap;html=1;aspect=fixed;rounded=0;shadow=0;" vertex="1" parent="uQfzY_hKU3L6vFdoFHdU-1">
          <mxGeometry x="-250" y="30" width="780" height="780" as="geometry" />
        </mxCell>
        <mxCell id="SgsF38AEUeu6z_KLhp7--1" value="" style="rounded=1;whiteSpace=wrap;html=1;shadow=0;" vertex="1" parent="uQfzY_hKU3L6vFdoFHdU-1">
          <mxGeometry x="-170" y="170" width="190" height="90" as="geometry" />
        </mxCell>
        <mxCell id="SgsF38AEUeu6z_KLhp7--2" value="Header&amp;nbsp; Comp" style="text;html=1;strokeColor=none;fillColor=none;align=center;verticalAlign=middle;whiteSpace=wrap;rounded=0;shadow=0;" vertex="1" parent="uQfzY_hKU3L6vFdoFHdU-1">
          <mxGeometry x="-95" y="205" width="40" height="20" as="geometry" />
        </mxCell>
        <mxCell id="SgsF38AEUeu6z_KLhp7--6" style="edgeStyle=orthogonalEdgeStyle;rounded=0;orthogonalLoop=1;jettySize=auto;html=1;" edge="1" parent="uQfzY_hKU3L6vFdoFHdU-1" source="SgsF38AEUeu6z_KLhp7--3" target="SgsF38AEUeu6z_KLhp7--1">
          <mxGeometry relative="1" as="geometry">
            <Array as="points">
              <mxPoint x="140" y="220" />
              <mxPoint x="140" y="220" />
            </Array>
          </mxGeometry>
        </mxCell>
        <mxCell id="SgsF38AEUeu6z_KLhp7--3" value="" style="shape=cylinder3;whiteSpace=wrap;html=1;boundedLbl=1;backgroundOutline=1;size=15;rounded=0;shadow=0;" vertex="1" parent="uQfzY_hKU3L6vFdoFHdU-1">
          <mxGeometry x="310" y="140" width="120" height="160" as="geometry" />
        </mxCell>
        <mxCell id="SgsF38AEUeu6z_KLhp7--8" value="Auth Service" style="text;html=1;strokeColor=none;fillColor=none;align=center;verticalAlign=middle;whiteSpace=wrap;rounded=0;shadow=0;" vertex="1" parent="uQfzY_hKU3L6vFdoFHdU-1">
          <mxGeometry x="350" y="210" width="40" height="20" as="geometry" />
        </mxCell>
        <mxCell id="SgsF38AEUeu6z_KLhp7--12" style="edgeStyle=orthogonalEdgeStyle;rounded=0;orthogonalLoop=1;jettySize=auto;html=1;entryX=0.153;entryY=1.044;entryDx=0;entryDy=0;entryPerimeter=0;" edge="1" parent="uQfzY_hKU3L6vFdoFHdU-1" source="SgsF38AEUeu6z_KLhp7--10" target="SgsF38AEUeu6z_KLhp7--1">
          <mxGeometry relative="1" as="geometry" />
        </mxCell>
        <mxCell id="SgsF38AEUeu6z_KLhp7--10" value="" style="rounded=1;whiteSpace=wrap;html=1;shadow=0;" vertex="1" parent="uQfzY_hKU3L6vFdoFHdU-1">
          <mxGeometry x="-230" y="360" width="190" height="90" as="geometry" />
        </mxCell>
        <mxCell id="SgsF38AEUeu6z_KLhp7--11" value="Article-list&amp;nbsp; Comp" style="text;html=1;strokeColor=none;fillColor=none;align=center;verticalAlign=middle;whiteSpace=wrap;rounded=0;shadow=0;" vertex="1" parent="uQfzY_hKU3L6vFdoFHdU-1">
          <mxGeometry x="-167.5" y="395" width="65" height="20" as="geometry" />
        </mxCell>
        <mxCell id="SgsF38AEUeu6z_KLhp7--15" style="edgeStyle=orthogonalEdgeStyle;rounded=0;orthogonalLoop=1;jettySize=auto;html=1;" edge="1" parent="uQfzY_hKU3L6vFdoFHdU-1" source="SgsF38AEUeu6z_KLhp7--13" target="SgsF38AEUeu6z_KLhp7--1">
          <mxGeometry relative="1" as="geometry">
            <Array as="points">
              <mxPoint x="10" y="405" />
            </Array>
          </mxGeometry>
        </mxCell>
        <mxCell id="SgsF38AEUeu6z_KLhp7--13" value="" style="rounded=1;whiteSpace=wrap;html=1;shadow=0;" vertex="1" parent="uQfzY_hKU3L6vFdoFHdU-1">
          <mxGeometry x="80" y="360" width="190" height="90" as="geometry" />
        </mxCell>
        <mxCell id="SgsF38AEUeu6z_KLhp7--14" value="Tag-list&amp;nbsp; Comp" style="text;html=1;strokeColor=none;fillColor=none;align=center;verticalAlign=middle;whiteSpace=wrap;rounded=0;shadow=0;" vertex="1" parent="uQfzY_hKU3L6vFdoFHdU-1">
          <mxGeometry x="155" y="395" width="55" height="20" as="geometry" />
        </mxCell>
        <mxCell id="SgsF38AEUeu6z_KLhp7--18" style="edgeStyle=orthogonalEdgeStyle;rounded=0;orthogonalLoop=1;jettySize=auto;html=1;" edge="1" parent="uQfzY_hKU3L6vFdoFHdU-1" source="SgsF38AEUeu6z_KLhp7--16">
          <mxGeometry relative="1" as="geometry">
            <mxPoint x="-20" y="263" as="targetPoint" />
            <Array as="points">
              <mxPoint x="-20" y="263" />
            </Array>
          </mxGeometry>
        </mxCell>
        <mxCell id="SgsF38AEUeu6z_KLhp7--16" value="" style="rounded=1;whiteSpace=wrap;html=1;shadow=0;" vertex="1" parent="uQfzY_hKU3L6vFdoFHdU-1">
          <mxGeometry x="-102.5" y="550" width="190" height="90" as="geometry" />
        </mxCell>
        <mxCell id="SgsF38AEUeu6z_KLhp7--17" value="Pagination&amp;nbsp; Comp" style="text;html=1;strokeColor=none;fillColor=none;align=center;verticalAlign=middle;whiteSpace=wrap;rounded=0;shadow=0;" vertex="1" parent="uQfzY_hKU3L6vFdoFHdU-1">
          <mxGeometry x="-27.5" y="585" width="40" height="20" as="geometry" />
        </mxCell>
        <mxCell id="SgsF38AEUeu6z_KLhp7--22" style="edgeStyle=orthogonalEdgeStyle;rounded=0;orthogonalLoop=1;jettySize=auto;html=1;entryX=0.5;entryY=1;entryDx=0;entryDy=0;entryPerimeter=0;" edge="1" parent="uQfzY_hKU3L6vFdoFHdU-1" source="SgsF38AEUeu6z_KLhp7--19" target="SgsF38AEUeu6z_KLhp7--3">
          <mxGeometry relative="1" as="geometry" />
        </mxCell>
        <mxCell id="SgsF38AEUeu6z_KLhp7--19" value="" style="ellipse;whiteSpace=wrap;html=1;rounded=0;shadow=0;" vertex="1" parent="uQfzY_hKU3L6vFdoFHdU-1">
          <mxGeometry x="310" y="525" width="120" height="80" as="geometry" />
        </mxCell>
        <mxCell id="SgsF38AEUeu6z_KLhp7--20" value="User Model" style="text;html=1;strokeColor=none;fillColor=none;align=center;verticalAlign=middle;whiteSpace=wrap;rounded=0;shadow=0;" vertex="1" parent="uQfzY_hKU3L6vFdoFHdU-1">
          <mxGeometry x="350" y="555" width="40" height="20" as="geometry" />
        </mxCell>
      </root>
    </mxGraphModel>
  </diagram>
  <diagram id="QlmVWbmw0cmWhiqxPOH8" name="Article">
    <mxGraphModel dx="1422" dy="794" grid="1" gridSize="10" guides="1" tooltips="1" connect="1" arrows="1" fold="1" page="1" pageScale="1" pageWidth="827" pageHeight="1169" math="0" shadow="0">
      <root>
        <mxCell id="lcBjSIhIa94JTPnkme8c-0" />
        <mxCell id="lcBjSIhIa94JTPnkme8c-1" parent="lcBjSIhIa94JTPnkme8c-0" />
      </root>
    </mxGraphModel>
  </diagram>
</mxfile>
